<svg width="0" height="0" class="hidden">
  <symbol fill="#1A1A1A" xmlns="http://www.w3.org/2000/svg" viewBox="0 0 48 48" id="Wordpress">
    <path d="M 24 4 C 12.972066 4 4 12.972074 4 24 C 4 35.027926 12.972066 44 24 44 C 35.027934 44 44 35.027926 44 24 C 44 12.972074 35.027934 4 24 4 z M 24 7 C 28.024038 7 31.709309 8.3978967 34.617188 10.724609 C 33.741214 11.338586 33.130859 12.514964 33.130859 13.632812 C 33.130859 15.139812 33.979875 16.458797 34.921875 17.966797 C 35.675875 19.191797 36.427734 20.792688 36.427734 23.054688 C 36.427734 24.656688 35.957625 26.635938 35.015625 29.085938 L 33.130859 35.302734 L 26.441406 15.328125 C 27.572406 15.234125 28.609375 15.140625 28.609375 15.140625 C 29.551375 15.046625 29.457625 13.634766 28.515625 13.634766 L 28.421875 13.634766 C 28.421875 13.634766 25.405734 13.917969 23.427734 13.917969 C 21.637734 13.917969 18.529297 13.634766 18.529297 13.634766 L 18.435547 13.634766 C 17.493547 13.634766 17.399797 15.140625 18.341797 15.140625 C 18.341797 15.140625 19.283313 15.234125 20.320312 15.328125 L 23.240234 23.242188 L 19.189453 35.396484 L 12.40625 15.234375 C 13.53725 15.140375 14.572266 15.046875 14.572266 15.046875 C 15.514266 14.952875 15.420516 13.539063 14.478516 13.539062 L 14.384766 13.539062 C 14.384766 13.539062 12.204194 13.755816 10.394531 13.826172 C 13.491737 9.686863 18.418546 7 24 7 z M 40.064453 18.46875 C 40.659826 20.203957 41 22.059792 41 24 C 41 29.786228 38.119753 34.878526 33.71875 37.947266 L 38.691406 23.527344 C 39.401152 21.730085 39.874837 19.909784 40.064453 18.46875 z M 7.7207031 19.103516 L 14.736328 38.251953 C 10.079497 35.223385 7 29.983248 7 24 C 7 22.296128 7.2567752 20.654052 7.7207031 19.103516 z M 23.994141 25.599609 L 29.335938 40.136719 C 27.657297 40.689556 25.866601 41 24 41 C 22.258089 41 20.578897 40.736024 18.998047 40.251953 L 23.994141 25.599609 z"></path>
  </symbol>
  <symbol id="Basic ui" version="1.1" xml:space="preserve" xmlns="http://www.w3.org/2000/svg" xmlnsCc="http://creativecommons.org/ns#" xmlnsDc="http://purl.org/dc/elements/1.1/" xmlnsRdf="http://www.w3.org/1999/02/22-rdf-syntax-ns#" xmlnsSvg="http://www.w3.org/2000/svg" viewBox="0 0 281.25 281.25">
    <defs id="defs4"></defs>
    <g id="layer1" transform="translate(6111.1064,-3994.3706)">
      <path d="m -6064.3529,4034.1868 a 4.6879687,4.6879687 0 0 0 -4.6875,4.6875 v 192.2424 a 4.6879687,4.6879687 0 0 0 4.6875,4.6875 h 187.7436 a 4.6879687,4.6879687 0 0 0 4.6875,-4.6875 v -140.625 -51.6174 a 4.6879687,4.6879687 0 0 0 -4.6875,-4.6875 z m 4.6875,9.375 h 178.3686 v 42.2424 h -178.3686 z m 15.5933,14.9835 a 4.6875,4.6875 0 0 0 -4.6875,4.6875 4.6875,4.6875 0 0 0 4.6875,4.6875 h 7.1027 a 4.6875,4.6875 0 0 0 4.6875,-4.6875 4.6875,4.6875 0 0 0 -4.6875,-4.6875 z m 26.5173,0 a 4.6875,4.6875 0 0 0 -4.6875,4.6875 4.6875,4.6875 0 0 0 4.6875,4.6875 h 7.1009 a 4.6875,4.6875 0 0 0 4.6875,-4.6875 4.6875,4.6875 0 0 0 -4.6875,-4.6875 z m 112.696,0 a 4.6875,4.6875 0 0 0 -4.6875,4.6875 4.6875,4.6875 0 0 0 4.6875,4.6875 h 7.1008 a 4.6875,4.6875 0 0 0 4.6875,-4.6875 4.6875,4.6875 0 0 0 -4.6875,-4.6875 z m -154.8066,36.6339 h 178.3686 v 131.25 h -178.3686 z" id="rect4895"></path>
    </g>
  </symbol>
  <symbol fill="none" xmlns="http://www.w3.org/2000/svg" viewBox="0 0 24 24" id="Clock">
    <path fill-rule="evenodd" clip-rule="evenodd" d="M12 2.75C6.89137 2.75 2.75 6.89137 2.75 12C2.75 17.1086 6.89137 21.25 12 21.25C17.1086 21.25 21.25 17.1086 21.25 12C21.25 6.89137 17.1086 2.75 12 2.75ZM1.25 12C1.25 6.06294 6.06294 1.25 12 1.25C17.9371 1.25 22.75 6.06294 22.75 12C22.75 17.9371 17.9371 22.75 12 22.75C6.06294 22.75 1.25 17.9371 1.25 12ZM12 7.25C12.4142 7.25 12.75 7.58579 12.75 8V11.6893L15.0303 13.9697C15.3232 14.2626 15.3232 14.7374 15.0303 15.0303C14.7374 15.3232 14.2626 15.3232 13.9697 15.0303L11.4697 12.5303C11.329 12.3897 11.25 12.1989 11.25 12V8C11.25 7.58579 11.5858 7.25 12 7.25Z" ></path>
  </symbol>
  <symbol fill="#000000" version="1.1" id="Growth" xmlns="http://www.w3.org/2000/svg" xmlns:xlink="http://www.w3.org/1999/xlink" xml:space="preserve" viewBox="0 0 490 490">
    <g>
      <g>
        <g>
          <path d="M440,450V100c0-5.522-4.477-10-10-10h-70c-5.523,0-10,4.478-10,10v350h-10V190c0-5.522-4.477-10-10-10h-70
				c-5.523,0-10,4.478-10,10v260h-10V250c0-5.522-4.477-10-10-10h-70c-5.523,0-10,4.478-10,10v200h-10V320c0-5.522-4.477-10-10-10
				H60c-5.523,0-10,4.478-10,10v130H0v20h490v-20H440z M120,450H70v-75h50V450z M120,355H70v-25h50V355z M220,450h-50V305h50V450z
				 M220,285h-50v-25h50V285z M320,450h-50V245h50V450z M320,225h-50v-25h50V225z M420,450h-50V155h50V450z M420,135h-50v-25h50V135
				z"></path>
          <path d="M57.072,282.072L285,54.143V90h20V30c0-5.522-4.477-10-10-10h-65v20h40.857L42.929,267.929L57.072,282.072z"></path>
        </g>
      </g>
    </g>
  </symbol>
  <symbol fill="#1A1A1A" xmlns="http://www.w3.org/2000/svg" viewBox="0 0 50 50" id="Menu">
    <path d="M 3 9 A 1.0001 1.0001 0 1 0 3 11 L 47 11 A 1.0001 1.0001 0 1 0 47 9 L 3 9 z M 3 24 A 1.0001 1.0001 0 1 0 3 26 L 47 26 A 1.0001 1.0001 0 1 0 47 24 L 3 24 z M 3 39 A 1.0001 1.0001 0 1 0 3 41 L 47 41 A 1.0001 1.0001 0 1 0 47 39 L 3 39 z"></path>
  </symbol>
  <symbol fill="#1A1A1A" xmlns="http://www.w3.org/2000/svg" viewBox="0 0 32 32" id="Photo">
    <path d="M 2 5 L 2 27 L 30 27 L 30 5 Z M 4 7 L 28 7 L 28 20.90625 L 22.71875 15.59375 L 22 14.875 L 17.46875 19.40625 L 11.71875 13.59375 L 11 12.875 L 4 19.875 Z M 24 9 C 22.894531 9 22 9.894531 22 11 C 22 12.105469 22.894531 13 24 13 C 25.105469 13 26 12.105469 26 11 C 26 9.894531 25.105469 9 24 9 Z M 11 15.71875 L 20.1875 25 L 4 25 L 4 22.71875 Z M 22 17.71875 L 28 23.71875 L 28 25 L 23.03125 25 L 18.875 20.8125 Z"></path>
  </symbol>
  <symbol fill="#000000" version="1.1" xmlns="http://www.w3.org/2000/svg" viewBox="0 0 32 32" id="Quotes">
    <title>quote</title>
    <path d="M9.563 8.469l-0.813-1.25c-5.625 3.781-8.75 8.375-8.75 12.156 0 3.656 2.688 5.375 4.969 5.375 2.875 0 4.906-2.438 4.906-5 0-2.156-1.375-4-3.219-4.688-0.531-0.188-1.031-0.344-1.031-1.25 0-1.156 0.844-2.875 3.938-5.344zM21.969 8.469l-0.813-1.25c-5.563 3.781-8.75 8.375-8.75 12.156 0 3.656 2.75 5.375 5.031 5.375 2.906 0 4.969-2.438 4.969-5 0-2.156-1.406-4-3.313-4.688-0.531-0.188-1-0.344-1-1.25 0-1.156 0.875-2.875 3.875-5.344z"></path>
  </symbol>
  <symbol version="1.1" id="web-page-svgrepo-com" xmlns="http://www.w3.org/2000/svg" xmlns:xlink="http://www.w3.org/1999/xlink" xml:space="preserve" viewBox="0 0 512 512">
    <g>
      <path d="M464,0H48C21.492,0,0,21.492,0,48v416c0,26.508,21.492,48,48,48h416c26.508,0,48-21.492,48-48V48
		C512,21.492,490.508,0,464,0z M444.664,35c10.492,0,19,8.508,19,19s-8.508,19-19,19c-10.492,0-19-8.508-19-19
		S434.172,35,444.664,35z M374.164,35c10.492,0,19,8.508,19,19s-8.508,19-19,19c-10.492,0-19-8.508-19-19S363.672,35,374.164,35z
		 M303.664,35c10.492,0,19,8.508,19,19s-8.508,19-19,19c-10.492,0-19-8.508-19-19S293.172,35,303.664,35z M472,464
		c0,4.406-3.586,8-8,8H48c-4.414,0-8-3.594-8-8V104h432V464z"></path>
      <rect x="96" y="192" width="152" height="32"></rect>
      <rect x="96" y="352" width="328" height="32"></rect>
      <rect x="304" y="192" width="120" height="120"></rect>
      <polygon points="229.042,304 248,304 248,272 96,272 96,304 213.042,304 	"></polygon>
    </g>
  </symbol>
  <symbol fill="#000000" version="1.2" baseProfile="tiny" id="Website page" xmlns="http://www.w3.org/2000/svg" xmlns:xlink="http://www.w3.org/1999/xlink" xml:space="preserve" viewBox="0 0 256 256">
    <path d="M237,19H19c-8.2,0-14.9,6.7-14.9,14.9v188.3c0,8.2,6.7,14.9,14.9,14.9h218c8.2,0,14.9-6.7,14.9-14.9V33.9
	C251.9,25.7,245.2,19,237,19z M199.8,28.9c5.4,0,9.9,4.5,9.9,9.9c0,5.5-4.5,9.9-9.9,9.9s-9.9-4.5-9.9-9.9S194.4,28.9,199.8,28.9z
	 M172.6,28.9c5.4,0,9.9,4.5,9.9,9.9c0,5.5-4.5,9.9-9.9,9.9s-9.9-4.5-9.9-9.9S167.1,28.9,172.6,28.9z M237,223.9H19V58.6h218V223.9z
	 M227.1,48.7c-5.4,0-9.9-4.5-9.9-9.9s4.5-9.9,9.9-9.9s9.9,4.5,9.9,9.9C237,44.3,232.5,48.7,227.1,48.7z M96,74h76.1v14.4H96V74z
	 M126,106.9h96.3v14.3H126V106.9z M126,135.5h96.3v14.3H126V135.5z M126,164.5h96.3v14.3H126V164.5z M32.6,193.1h189.8v14.3H32.6
	V193.1z M32.6,106.9h67.8v70.7H32.6V106.9z"></path>
  </symbol>
</svg>